<?xml version="1.0" encoding="UTF-8" standalone="no"?>
<!-- Created with Inkscape (http://www.inkscape.org/) -->

<svg
   xmlns:dc="http://purl.org/dc/elements/1.1/"
   xmlns:cc="http://creativecommons.org/ns#"
   xmlns:rdf="http://www.w3.org/1999/02/22-rdf-syntax-ns#"
   xmlns:svg="http://www.w3.org/2000/svg"
   xmlns="http://www.w3.org/2000/svg"
   xmlns:sodipodi="http://sodipodi.sourceforge.net/DTD/sodipodi-0.dtd"
   xmlns:inkscape="http://www.inkscape.org/namespaces/inkscape"
   width="104.358"
   height="236.95404"
   viewBox="0 0 27.611043 62.693302"
   version="1.1"
   id="svg8"
   inkscape:version="0.92.4 (5da689c313, 2019-01-14)"
   sodipodi:docname="allikas.svg"
   inkscape:export-filename="C:\Projects\regio-webapi\kaart.regio.ee\www\vormsi\www\img\vaatetorn.png"
   inkscape:export-xdpi="96"
   inkscape:export-ydpi="96">
  <defs
     id="defs2">
    <clipPath
       clipPathUnits="userSpaceOnUse"
       id="clipPath149212">
      <path
         d="M 0,0 H 1190.551 V 841.89 H 0 Z"
         id="path149210"
         inkscape:connector-curvature="0" />
    </clipPath>
    <clipPath
       clipPathUnits="userSpaceOnUse"
       id="clipPath149228">
      <path
         d="M 0,0 H 1190.551 V 841.89 H 0 Z"
         id="path149226"
         inkscape:connector-curvature="0" />
    </clipPath>
  </defs>
  <sodipodi:namedview
     id="base"
     pagecolor="#ffffff"
     bordercolor="#666666"
     borderopacity="1.0"
     inkscape:pageopacity="0.0"
     inkscape:pageshadow="2"
     inkscape:zoom="2"
     inkscape:cx="-163.94778"
     inkscape:cy="86.662852"
     inkscape:document-units="px"
     inkscape:current-layer="layer3"
     showgrid="false"
     inkscape:window-width="1920"
     inkscape:window-height="1017"
     inkscape:window-x="-8"
     inkscape:window-y="-8"
     inkscape:window-maximized="1"
     inkscape:snap-page="false"
     units="px"
     fit-margin-top="0"
     fit-margin-left="0"
     fit-margin-right="0"
     fit-margin-bottom="0"
     inkscape:pagecheckerboard="true"
     inkscape:snap-to-guides="false"
     inkscape:snap-grids="false"
     scale-x="0.26458"
     inkscape:snap-global="false" />
  <metadata
     id="metadata5">
    <rdf:RDF>
      <cc:Work
         rdf:about="">
        <dc:format>image/svg+xml</dc:format>
        <dc:type
           rdf:resource="http://purl.org/dc/dcmitype/StillImage" />
        <dc:title></dc:title>
      </cc:Work>
    </rdf:RDF>
  </metadata>
  <g
     inkscape:label="Layer 1"
     inkscape:groupmode="layer"
     id="layer1"
     transform="translate(113.65966,78.645908)"
     style="display:inline" />
  <g
     inkscape:groupmode="layer"
     id="layer3"
     inkscape:label="vaatetorn"
     style="display:inline"
     transform="translate(102.70052,72.992346)">
    <g
       id="g158214"
       transform="matrix(5.4139297,0,0,-5.4139297,-89.707084,-45.375891)">
      <path
         d="M 0,0 -0.12,0.03 -0.45,0.061 -0.75,0.15 -1.05,0.3 -1.32,0.45 -1.8,0.87 -1.98,1.141 -2.16,1.41 -2.28,1.71 -2.37,2.01 -2.4,2.34 v 0.33 l 0.03,0.3 0.06,0.33 0.12,0.301 0.15,0.269 0.18,0.271 0.21,0.239 0.24,0.21 0.27,0.181 0.27,0.149 0.33,0.09 0.3,0.06 0.33,0.031 h 0.3 L 0.72,5.04 1.02,4.95 1.32,4.83 1.59,4.65 2.07,4.23 2.25,3.96 2.43,3.69 2.55,3.391 2.64,3.09 2.67,2.76 2.7,2.46 2.64,2.13 2.58,1.83 2.46,1.53 2.31,1.23 2.13,0.96 1.92,0.72 1.68,0.54 1.59,0.45 1.8,-0.27 1.86,-0.78 1.71,-1.2 1.23,-1.89 0.87,-2.34 0.57,-2.91 0.54,-3.149 0.6,-3.39 1.38,-4.77 1.56,-5.46 1.62,-5.82 1.65,-6.149 v -0.21 l -0.21,-0.12 -0.21,0.569 -0.21,0.45 -1.38,1.59 -0.18,0.33 -0.06,0.33 -0.06,0.33 0.09,0.24 0.42,0.6 0.45,0.87 0.09,0.271 -0.06,0.299 -0.27,0.51 z"
         style="fill:#00618a;fill-opacity:1;fill-rule:evenodd;stroke:none"
         id="path158216"
         inkscape:connector-curvature="0" />
    </g>
  </g>
</svg>
