<?xml version="1.0" encoding="UTF-8" standalone="no"?>
<!-- Created with Inkscape (http://www.inkscape.org/) -->

<svg
   xmlns:dc="http://purl.org/dc/elements/1.1/"
   xmlns:cc="http://creativecommons.org/ns#"
   xmlns:rdf="http://www.w3.org/1999/02/22-rdf-syntax-ns#"
   xmlns:svg="http://www.w3.org/2000/svg"
   xmlns="http://www.w3.org/2000/svg"
   xmlns:sodipodi="http://sodipodi.sourceforge.net/DTD/sodipodi-0.dtd"
   xmlns:inkscape="http://www.inkscape.org/namespaces/inkscape"
   width="100.00006"
   height="50.598091"
   viewBox="0 0 26.458349 13.387411"
   version="1.1"
   id="svg8"
   inkscape:version="0.92.4 (5da689c313, 2019-01-14)"
   sodipodi:docname="bussipeatus.svg">
  <defs
     id="defs2" />
  <sodipodi:namedview
     id="base"
     pagecolor="#ffffff"
     bordercolor="#666666"
     borderopacity="1.0"
     inkscape:pageopacity="0.0"
     inkscape:pageshadow="2"
     inkscape:zoom="2.8"
     inkscape:cx="-116.94856"
     inkscape:cy="75.334201"
     inkscape:document-units="mm"
     inkscape:current-layer="layer2"
     showgrid="false"
     inkscape:pagecheckerboard="true"
     inkscape:window-width="1920"
     inkscape:window-height="1017"
     inkscape:window-x="-8"
     inkscape:window-y="-8"
     inkscape:window-maximized="1"
     inkscape:snap-global="false"
     units="px"
     fit-margin-top="0"
     fit-margin-left="0"
     fit-margin-right="0"
     fit-margin-bottom="0" />
  <metadata
     id="metadata5">
    <rdf:RDF>
      <cc:Work
         rdf:about="">
        <dc:format>image/svg+xml</dc:format>
        <dc:type
           rdf:resource="http://purl.org/dc/dcmitype/StillImage" />
        <dc:title></dc:title>
      </cc:Work>
    </rdf:RDF>
  </metadata>
  <g
     inkscape:groupmode="layer"
     id="layer2"
     inkscape:label="bussipeatus"
     transform="translate(-40.915951,-26.408223)">
    <path
       inkscape:connector-curvature="0"
       style="fill:#1d1d1b;fill-opacity:1;stroke-width:0.44969857"
       d="m 65.243038,26.408223 -0.0093,0.0057 H 43.646152 v 0.02442 l -1.714564,2.192227 0.01154,0.0093 -1.014947,2.502529 h -0.0072 v 2.150563 0.804487 2.643315 h 0.01651 l -0.02154,0.01868 0.431693,0.633534 v 0.02084 h 1.346798 c 0.09945,-4.525281 5.970064,-3.955269 5.976189,0 h 9.457749 a 3.0579555,3.0579555 0 0 1 -0.0057,-0.163771 3.0579555,3.0579555 0 0 1 3.058485,-3.058486 3.0579555,3.0579555 0 0 1 3.05777,3.058486 3.0579555,3.0579555 0 0 1 -0.0086,0.179573 l 0.250685,7.35e-4 c 0.609361,4.06e-4 1.433086,0 2.03564,0 0.482843,-0.34841 0.658973,-0.408031 0.85764,-1.095394 -0.07819,-1.916227 -0.03068,-3.406159 -0.06034,-5.192532 l -0.655079,-3.092248 0.005,-0.0029 -0.0072,-0.0079 v -7.45e-4 l -1.40419,-1.619599 v -0.005 h -0.0043 z m -21.279401,1.516314 h 2.079454 v 3.217949 h -3.281157 l 0.07901,-1.124846 z m 3.918282,0 h 4.071998 v 3.217949 h -4.071998 z m 5.910825,0 h 4.137363 v 3.217949 h -4.137363 z m 5.976189,0 h 3.886678 l 0.766417,1.910656 v 1.307293 h -4.653095 z"
       id="rect1139-6" />
    <circle
       style="fill:#ffffff;fill-opacity:1;stroke:#1d1d1b;stroke-width:1.10009062;stroke-miterlimit:4;stroke-dasharray:none;stroke-opacity:1"
       id="path1212"
       cx="45.671215"
       cy="37.293671"
       inkscape:transform-center-x="0.65711141"
       inkscape:transform-center-y="0.091653703"
       r="1.9519182" />
    <circle
       style="fill:#ffffff;fill-opacity:1;stroke:#1d1d1b;stroke-width:1.10009062;stroke-miterlimit:4;stroke-dasharray:none;stroke-opacity:1"
       id="path1212-7"
       cx="61.180893"
       cy="37.282658"
       inkscape:transform-center-x="0.65711032"
       inkscape:transform-center-y="0.091653657"
       r="1.9519182" />
    <path
       style="fill:#ffffff;fill-opacity:1;stroke:#1d1d1b;stroke-width:0.09850861;stroke-miterlimit:4;stroke-dasharray:none;stroke-opacity:1"
       d="m 42.782863,31.016549 c 0.01001,-0.0587 0.02773,-0.298809 0.03948,-0.533588 l 0.02135,-0.426871 0.563441,-1.058422 0.56344,-1.058424 1.026132,-5.5e-4 1.026132,-5.52e-4 v 1.592555 1.592556 h -1.629047 -1.629046 z"
       id="path1237"
       inkscape:connector-curvature="0" />
    <path
       style="fill:#ffffff;fill-opacity:1;stroke:#1d1d1b;stroke-width:0.09850861;stroke-miterlimit:4;stroke-dasharray:none;stroke-opacity:1"
       d="m 47.894493,29.530711 v -1.592555 h 2.019427 2.019428 v 1.592555 1.592555 H 49.91392 47.894493 Z"
       id="path1239"
       inkscape:connector-curvature="0" />
    <path
       style="fill:#ffffff;fill-opacity:1;stroke:#1d1d1b;stroke-width:0.09850861;stroke-miterlimit:4;stroke-dasharray:none;stroke-opacity:1"
       d="m 53.80501,29.530711 v -1.592555 h 2.052263 2.052263 v 1.592555 1.592555 H 55.857273 53.80501 Z"
       id="path1241"
       inkscape:connector-curvature="0" />
    <path
       style="fill:#ffffff;fill-opacity:1;stroke:#1d1d1b;stroke-width:0.09850861;stroke-miterlimit:4;stroke-dasharray:none;stroke-opacity:1"
       d="m 59.781198,29.530711 v -1.592555 h 1.930402 1.930401 l 0.385333,0.960458 0.385334,0.960459 -7.35e-4,0.632097 -7.35e-4,0.632096 H 62.096242 59.78129 Z"
       id="path1243"
       inkscape:connector-curvature="0" />
  </g>
</svg>
