<?xml version="1.0" encoding="UTF-8" standalone="no"?>
<!-- Created with Inkscape (http://www.inkscape.org/) -->

<svg
   xmlns:dc="http://purl.org/dc/elements/1.1/"
   xmlns:cc="http://creativecommons.org/ns#"
   xmlns:rdf="http://www.w3.org/1999/02/22-rdf-syntax-ns#"
   xmlns:svg="http://www.w3.org/2000/svg"
   xmlns="http://www.w3.org/2000/svg"
   xmlns:sodipodi="http://sodipodi.sourceforge.net/DTD/sodipodi-0.dtd"
   xmlns:inkscape="http://www.inkscape.org/namespaces/inkscape"
   width="16"
   height="28"
   viewBox="0 0 4.2333332 7.4083336"
   version="1.1"
   id="svg8"
   inkscape:version="0.92.4 (5da689c313, 2019-01-14)"
   sodipodi:docname="ilusvaade.svg"
   inkscape:export-filename="C:\Projects\regio-webapi\kaart.regio.ee\www\vormsi\www\img\vaatetorn.png"
   inkscape:export-xdpi="96"
   inkscape:export-ydpi="96">
  <defs
     id="defs2" />
  <sodipodi:namedview
     id="base"
     pagecolor="#ffffff"
     bordercolor="#666666"
     borderopacity="1.0"
     inkscape:pageopacity="0.0"
     inkscape:pageshadow="2"
     inkscape:zoom="22.4"
     inkscape:cx="11.913939"
     inkscape:cy="16.013481"
     inkscape:document-units="px"
     inkscape:current-layer="layer1"
     showgrid="false"
     inkscape:window-width="1920"
     inkscape:window-height="1017"
     inkscape:window-x="-8"
     inkscape:window-y="-8"
     inkscape:window-maximized="1"
     inkscape:snap-page="false"
     units="px"
     fit-margin-top="0"
     fit-margin-left="0"
     fit-margin-right="0"
     fit-margin-bottom="0"
     inkscape:pagecheckerboard="true"
     inkscape:snap-to-guides="false"
     inkscape:snap-grids="false" />
  <metadata
     id="metadata5">
    <rdf:RDF>
      <cc:Work
         rdf:about="">
        <dc:format>image/svg+xml</dc:format>
        <dc:type
           rdf:resource="http://purl.org/dc/dcmitype/StillImage" />
        <dc:title></dc:title>
      </cc:Work>
    </rdf:RDF>
  </metadata>
  <g
     inkscape:label="Layer 1"
     inkscape:groupmode="layer"
     id="layer1"
     transform="translate(-0.03046294,0.16363471)">
    <g
       id="g142640"
       transform="matrix(-0.35191842,-0.02460853,0.02460853,-0.35191842,0.54551657,3.7770014)">
      <path
         d="M 0,0 0.21,-0.03 H 0.42 L 0.63,0.06 0.78,0.21 0.9,0.42 0.93,0.63 V 0.84 L 0.84,1.05 0.69,1.201 0.48,1.321 0.271,1.351 H 0.061 L -0.15,1.26 -0.3,1.109 -0.42,0.899 -0.45,0.689 V 0.479 L -0.36,0.27 -0.21,0.12 0,0 h 0.061"
         style="fill:none;stroke:#ffffff;stroke-width:1.01999998;stroke-linecap:butt;stroke-linejoin:round;stroke-miterlimit:3;stroke-dasharray:none;stroke-opacity:1"
         id="path142642"
         inkscape:connector-curvature="0" />
    </g>
    <g
       id="g142648"
       transform="matrix(-0.35191842,-0.02460853,0.02460853,-0.35191842,0.6142063,2.7946924)">
      <path
         d="M 0,0 -1.261,7.773 -2.161,7.563 -0.03,-0.09 0,0 v 0.06"
         style="fill:none;stroke:#ffffff;stroke-width:1.01999998;stroke-linecap:butt;stroke-linejoin:round;stroke-miterlimit:3;stroke-dasharray:none;stroke-opacity:1"
         id="path142650"
         inkscape:connector-curvature="0" />
    </g>
    <g
       id="g142656"
       transform="matrix(-0.35191842,-0.02460853,0.02460853,-0.35191842,0.96428925,2.9466949)">
      <path
         d="M 0,0 -4.952,6.093 -5.673,5.432 0.06,-0.18 -0.03,0.061"
         style="fill:none;stroke:#ffffff;stroke-width:1.01999998;stroke-linecap:butt;stroke-linejoin:round;stroke-miterlimit:3;stroke-dasharray:none;stroke-opacity:1"
         id="path142658"
         inkscape:connector-curvature="0" />
    </g>
    <g
       id="g142664"
       transform="matrix(-0.35191842,-0.02460853,0.02460853,-0.35191842,1.1224883,3.265564)">
      <path
         d="M 0,0 -7.533,2.762 -7.834,1.861 -0.03,-0.09 0,0 -0.059,0.03"
         style="fill:none;stroke:#ffffff;stroke-width:1.01999998;stroke-linecap:butt;stroke-linejoin:round;stroke-miterlimit:3;stroke-dasharray:none;stroke-opacity:1"
         id="path142666"
         inkscape:connector-curvature="0" />
    </g>
    <g
       id="g142672"
       transform="matrix(-0.35191842,-0.02460853,0.02460853,-0.35191842,1.1523851,3.5966106)">
      <path
         d="M 0,0 -7.924,-1.381 -7.773,-2.371 -0.03,-0.12 0,0 h -0.059"
         style="fill:none;stroke:#ffffff;stroke-width:1.01999998;stroke-linecap:butt;stroke-linejoin:round;stroke-miterlimit:3;stroke-dasharray:none;stroke-opacity:1"
         id="path142674"
         inkscape:connector-curvature="0" />
    </g>
    <g
       id="g142680"
       transform="matrix(-0.35191842,-0.02460853,0.02460853,-0.35191842,1.0419752,3.9602829)">
      <path
         d="M 0,0 -6.123,-5.132 -5.524,-5.823 0.12,-0.03 0,0 -0.061,-0.03"
         style="fill:none;stroke:#ffffff;stroke-width:1.01999998;stroke-linecap:butt;stroke-linejoin:round;stroke-miterlimit:3;stroke-dasharray:none;stroke-opacity:1"
         id="path142682"
         inkscape:connector-curvature="0" />
    </g>
    <g
       id="g142688"
       transform="matrix(-0.35191842,-0.02460853,0.02460853,-0.35191842,0.74287969,4.1411546)">
      <path
         d="m 0,0 -2.671,-7.654 0.78,-0.27 L 0.06,-0.06 0,0 -0.03,-0.06"
         style="fill:none;stroke:#ffffff;stroke-width:1.01999998;stroke-linecap:butt;stroke-linejoin:round;stroke-miterlimit:3;stroke-dasharray:none;stroke-opacity:1"
         id="path142690"
         inkscape:connector-curvature="0" />
    </g>
    <g
       id="g146428"
       transform="matrix(-0.35191842,-0.02460853,0.02460853,-0.35191842,0.54551657,3.7770014)">
      <path
         d="M 0,0 0.21,-0.03 H 0.42 L 0.63,0.06 0.78,0.21 0.9,0.42 0.93,0.63 V 0.84 L 0.84,1.05 0.69,1.201 0.48,1.321 0.271,1.351 H 0.061 L -0.15,1.26 -0.3,1.109 -0.42,0.899 -0.45,0.689 V 0.479 L -0.36,0.27 -0.21,0.12 Z"
         style="fill:#e30613;fill-opacity:1;fill-rule:evenodd;stroke:none"
         id="path146430"
         inkscape:connector-curvature="0" />
    </g>
    <g
       id="g146432"
       transform="matrix(-0.35191842,-0.02460853,0.02460853,-0.35191842,0.54551657,3.7770014)">
      <path
         d="M 0,0 0.21,-0.03 H 0.42 L 0.63,0.06 0.78,0.21 0.9,0.42 0.93,0.63 V 0.84 L 0.84,1.05 0.69,1.201 0.48,1.321 0.271,1.351 H 0.061 L -0.15,1.26 -0.3,1.109 -0.42,0.899 -0.45,0.689 V 0.479 L -0.36,0.27 -0.21,0.12 0,0 h 0.061"
         style="fill:none;stroke:#e30613;stroke-width:0.36000001;stroke-linecap:butt;stroke-linejoin:miter;stroke-miterlimit:3;stroke-dasharray:none;stroke-opacity:1"
         id="path146434"
         inkscape:connector-curvature="0" />
    </g>
    <g
       id="g146436"
       transform="matrix(-0.35191842,-0.02460853,0.02460853,-0.35191842,0.6142063,2.7946924)">
      <path
         d="m 0,0 -1.261,7.773 -0.9,-0.21 2.131,-7.653 z"
         style="fill:#e30613;fill-opacity:1;fill-rule:evenodd;stroke:none"
         id="path146438"
         inkscape:connector-curvature="0" />
    </g>
    <g
       id="g146440"
       transform="matrix(-0.35191842,-0.02460853,0.02460853,-0.35191842,0.6142063,2.7946924)">
      <path
         d="M 0,0 -1.261,7.773 -2.161,7.563 -0.03,-0.09 0,0 v 0.06"
         style="fill:none;stroke:#e30613;stroke-width:0.36000001;stroke-linecap:butt;stroke-linejoin:miter;stroke-miterlimit:3;stroke-dasharray:none;stroke-opacity:1"
         id="path146442"
         inkscape:connector-curvature="0" />
    </g>
    <g
       id="g146444"
       transform="matrix(-0.35191842,-0.02460853,0.02460853,-0.35191842,0.96428925,2.9466949)">
      <path
         d="M 0,0 -4.952,6.093 -5.673,5.432 0.06,-0.18 Z"
         style="fill:#e30613;fill-opacity:1;fill-rule:evenodd;stroke:none"
         id="path146446"
         inkscape:connector-curvature="0" />
    </g>
    <g
       id="g146448"
       transform="matrix(-0.35191842,-0.02460853,0.02460853,-0.35191842,0.96428925,2.9466949)">
      <path
         d="M 0,0 -4.952,6.093 -5.673,5.432 0.06,-0.18 -0.03,0.061"
         style="fill:none;stroke:#e30613;stroke-width:0.36000001;stroke-linecap:butt;stroke-linejoin:miter;stroke-miterlimit:3;stroke-dasharray:none;stroke-opacity:1"
         id="path146450"
         inkscape:connector-curvature="0" />
    </g>
    <g
       id="g146452"
       transform="matrix(-0.35191842,-0.02460853,0.02460853,-0.35191842,1.1224883,3.265564)">
      <path
         d="M 0,0 -7.533,2.762 -7.834,1.861 -0.03,-0.09 Z"
         style="fill:#e30613;fill-opacity:1;fill-rule:evenodd;stroke:none"
         id="path146454"
         inkscape:connector-curvature="0" />
    </g>
    <g
       id="g146456"
       transform="matrix(-0.35191842,-0.02460853,0.02460853,-0.35191842,1.1224883,3.265564)">
      <path
         d="M 0,0 -7.533,2.762 -7.834,1.861 -0.03,-0.09 0,0 -0.059,0.03"
         style="fill:none;stroke:#e30613;stroke-width:0.36000001;stroke-linecap:butt;stroke-linejoin:miter;stroke-miterlimit:3;stroke-dasharray:none;stroke-opacity:1"
         id="path146458"
         inkscape:connector-curvature="0" />
    </g>
    <g
       id="g146460"
       transform="matrix(-0.35191842,-0.02460853,0.02460853,-0.35191842,1.1523851,3.5966106)">
      <path
         d="m 0,0 -7.924,-1.381 0.151,-0.99 7.743,2.251 z"
         style="fill:#e30613;fill-opacity:1;fill-rule:evenodd;stroke:none"
         id="path146462"
         inkscape:connector-curvature="0" />
    </g>
    <g
       id="g146464"
       transform="matrix(-0.35191842,-0.02460853,0.02460853,-0.35191842,1.1523851,3.5966106)">
      <path
         d="M 0,0 -7.924,-1.381 -7.773,-2.371 -0.03,-0.12 0,0 h -0.059"
         style="fill:none;stroke:#e30613;stroke-width:0.36000001;stroke-linecap:butt;stroke-linejoin:miter;stroke-miterlimit:3;stroke-dasharray:none;stroke-opacity:1"
         id="path146466"
         inkscape:connector-curvature="0" />
    </g>
    <g
       id="g146468"
       transform="matrix(-0.35191842,-0.02460853,0.02460853,-0.35191842,1.0419752,3.9602829)">
      <path
         d="M 0,0 -6.123,-5.132 -5.524,-5.823 0.12,-0.03 Z"
         style="fill:#e30613;fill-opacity:1;fill-rule:evenodd;stroke:none"
         id="path146470"
         inkscape:connector-curvature="0" />
    </g>
    <g
       id="g146472"
       transform="matrix(-0.35191842,-0.02460853,0.02460853,-0.35191842,1.0419752,3.9602829)">
      <path
         d="M 0,0 -6.123,-5.132 -5.524,-5.823 0.12,-0.03 0,0 -0.061,-0.03"
         style="fill:none;stroke:#e30613;stroke-width:0.36000001;stroke-linecap:butt;stroke-linejoin:miter;stroke-miterlimit:3;stroke-dasharray:none;stroke-opacity:1"
         id="path146474"
         inkscape:connector-curvature="0" />
    </g>
    <g
       id="g146476"
       transform="matrix(-0.35191842,-0.02460853,0.02460853,-0.35191842,0.74287969,4.1411546)">
      <path
         d="m 0,0 -2.671,-7.654 0.78,-0.27 1.951,7.864 z"
         style="fill:#e30613;fill-opacity:1;fill-rule:evenodd;stroke:none"
         id="path146478"
         inkscape:connector-curvature="0" />
    </g>
    <g
       id="g146480"
       transform="matrix(-0.35191842,-0.02460853,0.02460853,-0.35191842,0.74287969,4.1411546)">
      <path
         d="m 0,0 -2.671,-7.654 0.78,-0.27 L 0.06,-0.06 0,0 -0.03,-0.06"
         style="fill:none;stroke:#e30613;stroke-width:0.36000001;stroke-linecap:butt;stroke-linejoin:miter;stroke-miterlimit:3;stroke-dasharray:none;stroke-opacity:1"
         id="path146482"
         inkscape:connector-curvature="0" />
    </g>
  </g>
</svg>
