<?xml version="1.0" encoding="UTF-8" standalone="no"?>
<!-- Created with Inkscape (http://www.inkscape.org/) -->

<svg
   xmlns:dc="http://purl.org/dc/elements/1.1/"
   xmlns:cc="http://creativecommons.org/ns#"
   xmlns:rdf="http://www.w3.org/1999/02/22-rdf-syntax-ns#"
   xmlns:svg="http://www.w3.org/2000/svg"
   xmlns="http://www.w3.org/2000/svg"
   xmlns:sodipodi="http://sodipodi.sourceforge.net/DTD/sodipodi-0.dtd"
   xmlns:inkscape="http://www.inkscape.org/namespaces/inkscape"
   width="100"
   height="65.571106"
   viewBox="0 0 26.458002 17.348803"
   version="1.1"
   id="svg8"
   inkscape:version="0.92.4 (5da689c313, 2019-01-14)"
   sodipodi:docname="kohvik.svg"
   inkscape:export-filename="C:\Projects\regio-webapi\kaart.regio.ee\www\vormsi\www\img\vaatetorn.png"
   inkscape:export-xdpi="96"
   inkscape:export-ydpi="96">
  <defs
     id="defs2">
    <clipPath
       clipPathUnits="userSpaceOnUse"
       id="clipPath149212">
      <path
         d="M 0,0 H 1190.551 V 841.89 H 0 Z"
         id="path149210"
         inkscape:connector-curvature="0" />
    </clipPath>
    <clipPath
       clipPathUnits="userSpaceOnUse"
       id="clipPath149228">
      <path
         d="M 0,0 H 1190.551 V 841.89 H 0 Z"
         id="path149226"
         inkscape:connector-curvature="0" />
    </clipPath>
  </defs>
  <sodipodi:namedview
     id="base"
     pagecolor="#ffffff"
     bordercolor="#666666"
     borderopacity="1.0"
     inkscape:pageopacity="0.0"
     inkscape:pageshadow="2"
     inkscape:zoom="4"
     inkscape:cx="27.195854"
     inkscape:cy="70.86881"
     inkscape:document-units="px"
     inkscape:current-layer="layer3"
     showgrid="false"
     inkscape:window-width="1920"
     inkscape:window-height="1017"
     inkscape:window-x="-8"
     inkscape:window-y="-8"
     inkscape:window-maximized="1"
     inkscape:snap-page="false"
     units="px"
     fit-margin-top="0"
     fit-margin-left="0"
     fit-margin-right="0"
     fit-margin-bottom="0"
     inkscape:pagecheckerboard="true"
     inkscape:snap-to-guides="false"
     inkscape:snap-grids="false"
     scale-x="0.26458"
     inkscape:snap-global="true" />
  <metadata
     id="metadata5">
    <rdf:RDF>
      <cc:Work
         rdf:about="">
        <dc:format>image/svg+xml</dc:format>
        <dc:type
           rdf:resource="http://purl.org/dc/dcmitype/StillImage" />
        <dc:title></dc:title>
      </cc:Work>
    </rdf:RDF>
  </metadata>
  <g
     inkscape:label="Layer 1"
     inkscape:groupmode="layer"
     id="layer1"
     transform="translate(11.438559,3.6099329)"
     style="display:inline" />
  <g
     inkscape:groupmode="layer"
     id="layer3"
     inkscape:label="vaatetorn"
     style="display:inline"
     transform="translate(0.47941135,-2.0436281)">
    <g
       id="g145178"
       transform="matrix(2.3889843,0,0,-2.3889843,20.314308,6.776206)">
      <path
         d="M 0,0 H 0.96 V -0.84 L 0.9,-1.021 0.81,-1.2 0.69,-1.381 0.51,-1.53 0.3,-1.65 -0.18,-1.831 -0.48,-1.86 0,0 m -6.213,1.981 h 6.093 l 0.09,-0.06 0.06,-0.09 0.06,-0.09 0.03,-0.12 0.03,-0.18 v -0.6 H 0.12 1.771 V -0.87 L 1.711,-1.23 1.561,-1.591 1.321,-1.891 0.99,-2.16 0.63,-2.4 0.18,-2.551 -0.27,-2.671 -0.75,-2.7 l -0.06,-0.181 -0.06,-0.18 -0.09,-0.18 -0.06,-0.181 -0.061,-0.18 -0.09,-0.179 -0.06,-0.181 -0.09,-0.18 H 2.371 L 2.341,-4.262 2.221,-4.411 2.041,-4.562 1.771,-4.741 1.411,-4.892 1.02,-5.042 0.57,-5.161 0.09,-5.281 h -6.513 l -0.48,0.12 -0.45,0.119 -0.391,0.15 -0.36,0.151 -0.27,0.179 -0.18,0.151 -0.12,0.149 -0.03,0.12 h 3.722 l -0.24,0.6 -0.241,0.571 -0.21,0.571 -0.18,0.569 -0.3,1.081 -0.12,0.48 -0.09,0.451 -0.06,0.42 -0.03,0.359 v 0.331 l 0.03,0.24 0.06,0.21 0.06,0.151 0.12,0.089 z"
         style="fill:#00618a;fill-opacity:1;fill-rule:evenodd;stroke:none"
         id="path145180"
         inkscape:connector-curvature="0" />
    </g>
  </g>
</svg>
