<?xml version="1.0" encoding="UTF-8" standalone="no"?>
<!-- Created with Inkscape (http://www.inkscape.org/) -->

<svg
   xmlns:dc="http://purl.org/dc/elements/1.1/"
   xmlns:cc="http://creativecommons.org/ns#"
   xmlns:rdf="http://www.w3.org/1999/02/22-rdf-syntax-ns#"
   xmlns:svg="http://www.w3.org/2000/svg"
   xmlns="http://www.w3.org/2000/svg"
   xmlns:sodipodi="http://sodipodi.sourceforge.net/DTD/sodipodi-0.dtd"
   xmlns:inkscape="http://www.inkscape.org/namespaces/inkscape"
   width="104.35797"
   height="54.695213"
   viewBox="0 0 27.611035 14.47126"
   version="1.1"
   id="svg8"
   inkscape:version="0.92.4 (5da689c313, 2019-01-14)"
   sodipodi:docname="linnuvaatluspaik.svg"
   inkscape:export-filename="C:\Projects\regio-webapi\kaart.regio.ee\www\vormsi\www\img\vaatetorn.png"
   inkscape:export-xdpi="96"
   inkscape:export-ydpi="96">
  <defs
     id="defs2">
    <clipPath
       clipPathUnits="userSpaceOnUse"
       id="clipPath149212">
      <path
         d="M 0,0 H 1190.551 V 841.89 H 0 Z"
         id="path149210"
         inkscape:connector-curvature="0" />
    </clipPath>
    <clipPath
       clipPathUnits="userSpaceOnUse"
       id="clipPath149228">
      <path
         d="M 0,0 H 1190.551 V 841.89 H 0 Z"
         id="path149226"
         inkscape:connector-curvature="0" />
    </clipPath>
  </defs>
  <sodipodi:namedview
     id="base"
     pagecolor="#ffffff"
     bordercolor="#666666"
     borderopacity="1.0"
     inkscape:pageopacity="0.0"
     inkscape:pageshadow="2"
     inkscape:zoom="0.70710678"
     inkscape:cx="-596.33936"
     inkscape:cy="197.83434"
     inkscape:document-units="px"
     inkscape:current-layer="layer3"
     showgrid="false"
     inkscape:window-width="1920"
     inkscape:window-height="1017"
     inkscape:window-x="-8"
     inkscape:window-y="-8"
     inkscape:window-maximized="1"
     inkscape:snap-page="false"
     units="px"
     fit-margin-top="0"
     fit-margin-left="0"
     fit-margin-right="0"
     fit-margin-bottom="0"
     inkscape:pagecheckerboard="true"
     inkscape:snap-to-guides="false"
     inkscape:snap-grids="false"
     scale-x="0.26458"
     inkscape:snap-global="false" />
  <metadata
     id="metadata5">
    <rdf:RDF>
      <cc:Work
         rdf:about="">
        <dc:format>image/svg+xml</dc:format>
        <dc:type
           rdf:resource="http://purl.org/dc/dcmitype/StillImage" />
        <dc:title></dc:title>
      </cc:Work>
    </rdf:RDF>
  </metadata>
  <g
     inkscape:label="Layer 1"
     inkscape:groupmode="layer"
     id="layer1"
     transform="translate(122.5043,66.819133)"
     style="display:inline" />
  <g
     inkscape:groupmode="layer"
     id="layer3"
     inkscape:label="vaatetorn"
     style="display:inline"
     transform="translate(111.54516,61.165571)">
    <g
       id="g158158"
       transform="matrix(2.4476787,0,0,-2.4476787,-105.39858,-54.042326)">
      <path
         d="m 0,0 -0.27,-0.51 -0.03,-0.54 0.06,-0.39 0.27,-0.45 0.54,-0.45 0.78,-0.21 1.32,-0.24 1.89,0.03 0.39,0.09 0.27,-0.12 0.66,0.03 0.69,0.12 0.51,0.15 0.99,0.78 0.36,0.63 0.12,0.33 L 8.46,-0.39 8.43,-0.57 8.22,-0.87 7.83,-1.26 6.99,-1.65 6.06,-1.8 5.64,-1.98 5.1,-2.07 4.2,-2.04 2.88,-1.86 2.22,-1.62 1.59,-1.5 H 1.2 L 0.84,-1.32 0.57,-0.99 0.6,-0.63 1.17,-0.271 1.83,0.06 2.49,0.149 3.09,0.27 3.78,0.24 H 4.44 L 4.17,0.36 3.6,0.39 2.34,0.3 H 1.68 L 1.35,0.21 1.23,0.149 1.11,0.12 0.93,0.09 0.72,0.06 H 0.57 L 0.42,0.03 H 0.27 L 0.15,0.09 Z"
         style="fill:#1d1d1b;fill-opacity:1;fill-rule:evenodd;stroke:none"
         id="path158160"
         inkscape:connector-curvature="0" />
    </g>
    <g
       id="g158162"
       transform="matrix(2.4476787,0,0,-2.4476787,-105.39858,-54.042326)">
      <path
         d="m 0,0 -0.27,-0.51 -0.03,-0.54 0.06,-0.39 0.27,-0.45 0.54,-0.45 0.78,-0.21 1.32,-0.24 1.89,0.03 0.39,0.09 0.27,-0.12 0.66,0.03 0.69,0.12 0.51,0.15 0.99,0.78 0.36,0.63 0.12,0.33 L 8.46,-0.39 8.43,-0.57 8.22,-0.87 7.83,-1.26 6.99,-1.65 6.06,-1.8 5.64,-1.98 5.1,-2.07 4.2,-2.04 2.88,-1.86 2.22,-1.62 1.59,-1.5 H 1.2 L 0.84,-1.32 0.57,-0.99 0.6,-0.63 1.17,-0.271 1.83,0.06 2.49,0.149 3.09,0.27 3.78,0.24 H 4.44 L 4.17,0.36 3.6,0.39 2.34,0.3 H 1.68 L 1.35,0.21 1.23,0.149 0.93,0.09 0.72,0.06 H 0.57 L 0.42,0.03 H 0.27 L 0.15,0.09 0,0 -0.03,-0.061"
         style="fill:none;stroke:#1d1d1b;stroke-width:0.41999999;stroke-linecap:butt;stroke-linejoin:miter;stroke-miterlimit:3;stroke-dasharray:none;stroke-opacity:1"
         id="path158164"
         inkscape:connector-curvature="0" />
    </g>
    <g
       id="g158170"
       transform="matrix(2.4476787,0,0,-2.4476787,-94.384038,-49.784098)">
      <path
         d="M 0,0 0.33,0.15 1.11,0.42 1.86,0.66 2.37,0.75 2.85,0.93 3.15,1.14 3.3,1.26 3.45,1.35 3.3,0.87 3.06,0.66 1.74,0.24 1.17,0 1.44,0.21 1.62,0.42 1.65,0.57 1.5,0.54 1.29,0.3 1.08,0.12 0.99,0 0.51,-0.06 H 0.09 L 0,0 0.06,0.03"
         style="fill:none;stroke:#1d1d1b;stroke-width:0.41999999;stroke-linecap:butt;stroke-linejoin:miter;stroke-miterlimit:3;stroke-dasharray:none;stroke-opacity:1"
         id="path158172"
         inkscape:connector-curvature="0" />
    </g>
    <g
       id="g158174"
       transform="matrix(2.4476787,0,0,-2.4476787,-104.9575,-55.144281)">
      <path
         d="M 0,0 V 0.27 L -0.06,0.51 -0.33,0.6 -0.51,0.63 -0.75,0.66 -0.63,0.72 -0.75,0.87 -0.78,1.02 V 1.2 l 0.06,0.21 v 0.15 l -0.09,0.03 -0.03,0.06 0.21,0.27 0.33,0.21 0.45,0.12 H 0.39 L 0.72,2.16 0.96,1.98 0.99,1.89 0.21,1.77 0.06,1.74 -0.09,1.62 V 1.41 L 0,1.26 0.3,1.32 0.48,1.44 1.02,1.86 1.17,1.59 1.23,1.23 1.14,0.6 1.05,0.12 0.93,0.06 0.84,0.03 H 0.6 L 0.48,-0.03 H 0.36 L 0.3,0 0.15,-0.03 Z"
         style="fill:#1d1d1b;fill-opacity:1;fill-rule:evenodd;stroke:none"
         id="path158176"
         inkscape:connector-curvature="0" />
    </g>
    <g
       id="g158178"
       transform="matrix(2.4476787,0,0,-2.4476787,-104.9575,-55.144281)">
      <path
         d="M 0,0 V 0.27 L -0.06,0.51 -0.33,0.6 -0.75,0.66 -0.63,0.72 -0.75,0.87 -0.78,1.02 V 1.2 l 0.06,0.21 v 0.15 l -0.09,0.03 -0.03,0.06 0.21,0.27 0.33,0.21 0.45,0.12 H 0.39 L 0.72,2.16 0.96,1.98 0.99,1.89 0.06,1.74 -0.09,1.62 V 1.41 L 0,1.26 0.3,1.32 0.48,1.44 1.02,1.86 1.17,1.59 1.23,1.23 1.14,0.6 1.05,0.12 0.93,0.06 0.84,0.03 H 0.6 L 0.48,-0.03 H 0.36 L 0.3,0 0.15,-0.03 -0.03343996,-0.07165705 0,0.06"
         style="fill:none;stroke:#1d1d1b;stroke-width:0.41999999;stroke-linecap:butt;stroke-linejoin:miter;stroke-miterlimit:3;stroke-dasharray:none;stroke-opacity:1"
         id="path158180"
         inkscape:connector-curvature="0"
         sodipodi:nodetypes="cccccccccccccccccccccccccccccccccccccccc" />
    </g>
    <g
       id="g158182"
       transform="matrix(2.4476787,0,0,-2.4476787,-107.45414,-56.760225)">
      <path
         d="M 0,0 0.03,0.12 -0.06,0.24 V 0.39 L -0.03,0.57 0,0.66 V 0.75 L -0.09,0.84 -0.54,0.42 -0.9,0.24 -1.2,0.12 -1.35,0 -1.44,-0.21 -1.41,-0.27 H -1.2 L -0.51,-0.09 -0.24,0 H 0.01433141 L 0,0.06"
         style="fill:none;stroke:#1d1d1b;stroke-width:0.41999999;stroke-linecap:butt;stroke-linejoin:miter;stroke-miterlimit:3;stroke-dasharray:none;stroke-opacity:1"
         id="path158184"
         inkscape:connector-curvature="0"
         sodipodi:nodetypes="ccccccccccccccccccc" />
    </g>
    <g
       id="g158186"
       transform="matrix(2.4476787,0,0,-2.4476787,-95.338899,-50.151014)">
      <path
         d="M -0.13853696,-0.07165705 0.84,0.27 1.53,0.51 2.34,0.84 3.12,1.05 3.21,1.11 2.67,1.29 2.04,1.44 1.29,1.53 0.54,1.65 0.18,1.59 -0.39,1.53 H -1.05 L -1.47,1.44 -1.95,1.38 -2.67,1.08 -2.91,0.84 V 0.72 l 0.03,-0.21 0.27,-0.15 h 0.45 l 0.42,-0.03 0.69,-0.3 0.63,-0.06 0.66739305,-0.01688973"
         style="fill:none;stroke:#1d1d1b;stroke-width:0.41999999;stroke-linecap:butt;stroke-linejoin:miter;stroke-miterlimit:3;stroke-dasharray:none;stroke-opacity:1"
         id="path158188"
         inkscape:connector-curvature="0"
         sodipodi:nodetypes="ccccccccccccccccccccccccc" />
    </g>
  </g>
</svg>
