<?xml version="1.0" encoding="UTF-8" standalone="no"?>
<!-- Created with Inkscape (http://www.inkscape.org/) -->

<svg
   xmlns:dc="http://purl.org/dc/elements/1.1/"
   xmlns:cc="http://creativecommons.org/ns#"
   xmlns:rdf="http://www.w3.org/1999/02/22-rdf-syntax-ns#"
   xmlns:svg="http://www.w3.org/2000/svg"
   xmlns="http://www.w3.org/2000/svg"
   xmlns:sodipodi="http://sodipodi.sourceforge.net/DTD/sodipodi-0.dtd"
   xmlns:inkscape="http://www.inkscape.org/namespaces/inkscape"
   width="104.35791"
   height="114.88965"
   viewBox="0 0 27.611019 30.397503"
   version="1.1"
   id="svg8"
   inkscape:version="0.92.4 (5da689c313, 2019-01-14)"
   sodipodi:docname="paadisadam.svg"
   inkscape:export-filename="C:\Projects\regio-webapi\kaart.regio.ee\www\vormsi\www\img\vaatetorn.png"
   inkscape:export-xdpi="96"
   inkscape:export-ydpi="96">
  <defs
     id="defs2">
    <clipPath
       clipPathUnits="userSpaceOnUse"
       id="clipPath149212">
      <path
         d="M 0,0 H 1190.551 V 841.89 H 0 Z"
         id="path149210"
         inkscape:connector-curvature="0" />
    </clipPath>
    <clipPath
       clipPathUnits="userSpaceOnUse"
       id="clipPath149228">
      <path
         d="M 0,0 H 1190.551 V 841.89 H 0 Z"
         id="path149226"
         inkscape:connector-curvature="0" />
    </clipPath>
  </defs>
  <sodipodi:namedview
     id="base"
     pagecolor="#ffffff"
     bordercolor="#666666"
     borderopacity="1.0"
     inkscape:pageopacity="0.0"
     inkscape:pageshadow="2"
     inkscape:zoom="2"
     inkscape:cx="-37.726023"
     inkscape:cy="81.085579"
     inkscape:document-units="px"
     inkscape:current-layer="layer3"
     showgrid="false"
     inkscape:window-width="1920"
     inkscape:window-height="1017"
     inkscape:window-x="-8"
     inkscape:window-y="-8"
     inkscape:window-maximized="1"
     inkscape:snap-page="false"
     units="px"
     fit-margin-top="0"
     fit-margin-left="0"
     fit-margin-right="0"
     fit-margin-bottom="0"
     inkscape:pagecheckerboard="true"
     inkscape:snap-to-guides="false"
     inkscape:snap-grids="false"
     scale-x="0.26458"
     inkscape:snap-global="false" />
  <metadata
     id="metadata5">
    <rdf:RDF>
      <cc:Work
         rdf:about="">
        <dc:format>image/svg+xml</dc:format>
        <dc:type
           rdf:resource="http://purl.org/dc/dcmitype/StillImage" />
        <dc:title></dc:title>
      </cc:Work>
    </rdf:RDF>
  </metadata>
  <g
     inkscape:label="Layer 1"
     inkscape:groupmode="layer"
     id="layer1"
     transform="translate(104.34581,51.37745)"
     style="display:inline" />
  <g
     inkscape:groupmode="layer"
     id="layer3"
     inkscape:label="vaatetorn"
     style="display:inline"
     transform="translate(93.386674,45.723888)">
    <g
       id="g155292"
       transform="matrix(3.3386186,0,0,-3.3386186,-81.014929,-44.468194)">
      <path
         d="m 0,0 -0.27,-0.419 0.06,-0.51 0.36,-0.33 v -6.84 l -0.39,0.12 -0.39,0.15 -0.39,0.21 -0.33,0.239 -0.33,0.271 -0.3,0.3 -0.27,0.33 -0.21,0.36 -0.57,0.96 -0.36,-1.591 0.63,0.391 0.24,-0.391 0.27,-0.389 0.33,-0.33 0.36,-0.33 0.39,-0.241 0.45,-0.209 0.42,-0.15 0.48,-0.12 h 0.51 l 0.48,0.12 0.42,0.15 0.45,0.209 0.39,0.241 0.36,0.33 0.33,0.33 0.27,0.389 0.24,0.391 L 4.26,-6.75 3.9,-5.009 3.3,-6.149 2.82,-6.809 2.52,-7.109 2.19,-7.38 1.86,-7.619 1.47,-7.799 1.08,-7.949 0.69,-8.069 v 6.779 l 0.39,0.301 0.09,0.51 -0.24,0.42 -0.45,0.21 z m 0.15,-8.519 h 0.03 z"
         style="fill:#1d1d1b;fill-opacity:1;fill-rule:nonzero;stroke:none"
         id="path155294"
         inkscape:connector-curvature="0" />
    </g>
    <g
       id="g155296"
       transform="matrix(3.3386186,0,0,-3.3386186,-90.229853,-23.238909)">
      <path
         d="M 0,0 0.24,-0.391 0.51,-0.78 0.84,-1.11 1.2,-1.44 1.59,-1.681 2.04,-1.891 2.46,-2.04 2.94,-2.16 H 2.91 3.45 l 0.48,0.12 0.42,0.149 0.45,0.21 0.39,0.241 0.36,0.33 0.33,0.33 0.27,0.389 L 6.39,0 7.02,-0.391 6.66,1.35 6.06,0.21 5.58,-0.45 5.28,-0.75 4.95,-1.021 4.62,-1.26 4.23,-1.44 3.84,-1.59 3.45,-1.71 V 5.069 L 3.84,5.37 3.93,5.88 3.69,6.3 3.24,6.51 2.76,6.359 2.49,5.939 2.55,5.43 2.91,5.1 V -1.74 L 2.52,-1.62 2.13,-1.47 1.74,-1.26 1.41,-1.021 1.08,-0.75 0.78,-0.45 0.51,-0.12 -0.27,1.2 -0.63,-0.391 0,0 0.03,-0.061"
         style="fill:none;stroke:#1d1d1b;stroke-width:0.41999999;stroke-linecap:butt;stroke-linejoin:miter;stroke-miterlimit:3;stroke-dasharray:none;stroke-opacity:1"
         id="path155298"
         inkscape:connector-curvature="0" />
    </g>
  </g>
</svg>
