<?xml version="1.0" encoding="UTF-8" standalone="no"?>
<!-- Created with Inkscape (http://www.inkscape.org/) -->

<svg
   xmlns:dc="http://purl.org/dc/elements/1.1/"
   xmlns:cc="http://creativecommons.org/ns#"
   xmlns:rdf="http://www.w3.org/1999/02/22-rdf-syntax-ns#"
   xmlns:svg="http://www.w3.org/2000/svg"
   xmlns="http://www.w3.org/2000/svg"
   xmlns:sodipodi="http://sodipodi.sourceforge.net/DTD/sodipodi-0.dtd"
   xmlns:inkscape="http://www.inkscape.org/namespaces/inkscape"
   width="100"
   height="50.887985"
   viewBox="0 0 26.458 13.463943"
   version="1.1"
   id="svg8"
   inkscape:version="0.92.4 (5da689c313, 2019-01-14)"
   sodipodi:docname="part_vaike.svg"
   inkscape:export-filename="C:\Projects\regio-webapi\kaart.regio.ee\www\vormsi\www\img\vaatetorn.png"
   inkscape:export-xdpi="96"
   inkscape:export-ydpi="96">
  <defs
     id="defs2" />
  <sodipodi:namedview
     id="base"
     pagecolor="#ffffff"
     bordercolor="#666666"
     borderopacity="1.0"
     inkscape:pageopacity="0.0"
     inkscape:pageshadow="2"
     inkscape:zoom="7.9195959"
     inkscape:cx="42.151647"
     inkscape:cy="21.634763"
     inkscape:document-units="px"
     inkscape:current-layer="layer1"
     showgrid="false"
     inkscape:window-width="1920"
     inkscape:window-height="1017"
     inkscape:window-x="-8"
     inkscape:window-y="-8"
     inkscape:window-maximized="1"
     inkscape:snap-page="false"
     units="px"
     fit-margin-top="0"
     fit-margin-left="0"
     fit-margin-right="0"
     fit-margin-bottom="0"
     inkscape:pagecheckerboard="true"
     inkscape:snap-to-guides="false"
     inkscape:snap-grids="false"
     scale-x="0.26458" />
  <metadata
     id="metadata5">
    <rdf:RDF>
      <cc:Work
         rdf:about="">
        <dc:format>image/svg+xml</dc:format>
        <dc:type
           rdf:resource="http://purl.org/dc/dcmitype/StillImage" />
        <dc:title></dc:title>
      </cc:Work>
    </rdf:RDF>
  </metadata>
  <g
     inkscape:label="Layer 1"
     inkscape:groupmode="layer"
     id="layer1"
     transform="translate(10.959148,5.6535607)">
    <g
       id="g140904"
       transform="matrix(2.4383692,0,0,-2.4383692,-5.3589588,1.0048939)">
      <path
         d="m 0,0 -0.271,-0.48 -0.059,-0.571 0.059,-0.36 0.301,-0.45 0.54,-0.45 0.781,-0.211 1.32,-0.239 1.861,0.03 0.42,0.09 0.27,-0.15 0.631,0.06 0.69,0.12 0.51,0.15 1.021,0.78 0.36,0.6 0.12,0.361 -0.09,0.36 -0.03,-0.18 -0.21,-0.3 -0.39,-0.391 -0.871,-0.42 -0.9,-0.121 -0.42,-0.209 -0.541,-0.09 -0.9,0.06 -1.321,0.18 -0.66,0.24 -0.66,0.09 -0.36,0.03 -0.391,0.18 -0.24,0.3 0.03,0.391 0.571,0.329 0.66,0.361 0.63,0.09 0.6,0.09 H 4.412 L 4.172,0.36 3.602,0.39 2.341,0.3 H 1.65 L 1.351,0.24 1.23,0.18 1.109,0.15 0.93,0.09 H 0.72 L 0.57,0.06 H 0.27 L 0.12,0.09 Z"
         style="fill:#1d1d1b;fill-opacity:1;fill-rule:evenodd;stroke:none"
         id="path140906"
         inkscape:connector-curvature="0" />
    </g>
    <g
       id="g140908"
       transform="matrix(2.4383692,0,0,-2.4383692,5.6185864,5.1762133)">
      <path
         d="M 0,0 0.33,0.15 0.78,0.3 1.109,0.42 1.86,0.66 2.371,0.75 2.851,0.93 3.15,1.11 3.301,1.26 3.422,1.321 3.392,1.11 3.301,0.87 3.031,0.63 2.19,0.39 1.711,0.24 1.381,0.09 1.141,0 1.44,0.18 1.591,0.42 1.65,0.57 1.501,0.54 1.291,0.3 1.08,0.12 0.96,0 0.81,-0.03 0.51,-0.061 0.09,-0.09 Z"
         style="fill:#1d1d1b;fill-opacity:1;fill-rule:evenodd;stroke:none"
         id="path140910"
         inkscape:connector-curvature="0" />
    </g>
    <g
       id="g140912"
       transform="matrix(2.4383692,0,0,-2.4383692,-4.9932031,-0.1647916)">
      <path
         d="M 0,0 V 0.24 L -0.059,0.48 -0.3,0.601 -0.478,0.631 -0.72,0.66 -0.599,0.721 -0.72,0.87 -0.75,1.021 v 0.18 l 0.061,0.21 v 0.151 l -0.12,0.03 -0.031,0.059 0.21,0.271 0.361,0.21 L 0.18,2.251 0.391,2.222 0.75,2.161 0.961,1.981 1.022,1.861 0.211,1.772 0.091,1.741 -0.059,1.621 -0.09,1.411 0.03,1.262 0.33,1.321 0.51,1.441 1.022,1.861 1.172,1.592 1.261,1.201 1.172,0.57 1.08,0.091 0.961,0.061 0.87,0 0.72,0.03 0.631,0 0.51,-0.029 H 0.18 Z"
         style="fill:#1d1d1b;fill-opacity:1;fill-rule:evenodd;stroke:none"
         id="path140914"
         inkscape:connector-curvature="0" />
    </g>
    <g
       id="g140916"
       transform="matrix(2.4383692,0,0,-2.4383692,4.5927707,4.8833639)">
      <path
         d="m 0,0 0.87,0.3 0.661,0.21 0.81,0.33 0.54,0.18 0.27,0.06 0.06,0.06 -1.14,0.331 -1.501,0.179 -0.93,-0.089 -0.691,-0.03 -0.87,-0.12 -0.72,-0.302 -0.24,-0.239 -0.03,-0.12 0.06,-0.24 0.27,-0.12 0.42,-0.031 h 0.45 L -1.051,0.03 -0.42,0 h 0.39 m -4.892,2.73 v 0.121 l -0.059,0.089 -0.031,0.181 0.06,0.15 0.03,0.12 -0.03,0.09 -0.06,0.09 L -5.462,3.15 -5.853,2.971 -6.273,2.73 -6.363,2.491 v -0.03 l 0.24,-0.03 0.33,0.09 0.331,0.12 0.271,0.06 0.269,0.029 v 0.061"
         style="fill:none;stroke:#1d1d1b;stroke-width:0.03;stroke-linecap:butt;stroke-linejoin:miter;stroke-miterlimit:3;stroke-dasharray:none;stroke-opacity:1"
         id="path140918"
         inkscape:connector-curvature="0" />
    </g>
  </g>
</svg>
