<?xml version="1.0" encoding="UTF-8" standalone="no"?>
<!-- Created with Inkscape (http://www.inkscape.org/) -->

<svg
   xmlns:dc="http://purl.org/dc/elements/1.1/"
   xmlns:cc="http://creativecommons.org/ns#"
   xmlns:rdf="http://www.w3.org/1999/02/22-rdf-syntax-ns#"
   xmlns:svg="http://www.w3.org/2000/svg"
   xmlns="http://www.w3.org/2000/svg"
   xmlns:sodipodi="http://sodipodi.sourceforge.net/DTD/sodipodi-0.dtd"
   xmlns:inkscape="http://www.inkscape.org/namespaces/inkscape"
   width="104.358"
   height="97.98661"
   viewBox="0 0 27.611045 25.925299"
   version="1.1"
   id="svg8"
   inkscape:version="0.92.4 (5da689c313, 2019-01-14)"
   sodipodi:docname="pinnavorm.svg"
   inkscape:export-filename="C:\Projects\regio-webapi\kaart.regio.ee\www\vormsi\www\img\vaatetorn.png"
   inkscape:export-xdpi="96"
   inkscape:export-ydpi="96">
  <defs
     id="defs2">
    <clipPath
       clipPathUnits="userSpaceOnUse"
       id="clipPath149212">
      <path
         d="M 0,0 H 1190.551 V 841.89 H 0 Z"
         id="path149210"
         inkscape:connector-curvature="0" />
    </clipPath>
    <clipPath
       clipPathUnits="userSpaceOnUse"
       id="clipPath149228">
      <path
         d="M 0,0 H 1190.551 V 841.89 H 0 Z"
         id="path149226"
         inkscape:connector-curvature="0" />
    </clipPath>
    <clipPath
       clipPathUnits="userSpaceOnUse"
       id="clipPath160572">
      <path
         d="m 283.74,144.469 h 7.454 v 13.135 h -7.454 z"
         id="path160570"
         inkscape:connector-curvature="0" />
    </clipPath>
    <clipPath
       clipPathUnits="userSpaceOnUse"
       id="clipPath160580">
      <path
         d="m 283.741,157.604 h 7.453 V 144.47 h -7.453 z"
         id="path160578"
         inkscape:connector-curvature="0" />
    </clipPath>
    <clipPath
       clipPathUnits="userSpaceOnUse"
       id="clipPath160584">
      <path
         d="m 283.741,157.604 h 7.453 V 144.47 h -7.453 z"
         id="path160582"
         inkscape:connector-curvature="0" />
    </clipPath>
    <clipPath
       clipPathUnits="userSpaceOnUse"
       id="clipPath160610">
      <path
         d="M 266.732,9.638 H 451.929 V 163.559 H 266.732 Z"
         id="path160608"
         inkscape:connector-curvature="0" />
    </clipPath>
    <clipPath
       clipPathUnits="userSpaceOnUse"
       id="clipPath160618">
      <path
         d="m 282.958,134.448 h 8.418 v -11.89 h -8.418 z"
         id="path160616"
         inkscape:connector-curvature="0" />
    </clipPath>
    <clipPath
       clipPathUnits="userSpaceOnUse"
       id="clipPath160622">
      <path
         d="m 282.958,122.558 h 8.418 v 11.89 h -8.418 z"
         id="path160620"
         inkscape:connector-curvature="0" />
    </clipPath>
    <clipPath
       clipPathUnits="userSpaceOnUse"
       id="clipPath160610-0">
      <path
         d="M 266.732,9.638 H 451.929 V 163.559 H 266.732 Z"
         id="path160608-4"
         inkscape:connector-curvature="0" />
    </clipPath>
    <clipPath
       clipPathUnits="userSpaceOnUse"
       id="clipPath160618-5">
      <path
         d="m 282.958,134.448 h 8.418 v -11.89 h -8.418 z"
         id="path160616-3"
         inkscape:connector-curvature="0" />
    </clipPath>
    <clipPath
       clipPathUnits="userSpaceOnUse"
       id="clipPath160622-9">
      <path
         d="m 282.958,122.558 h 8.418 v 11.89 h -8.418 z"
         id="path160620-3"
         inkscape:connector-curvature="0" />
    </clipPath>
  </defs>
  <sodipodi:namedview
     id="base"
     pagecolor="#ffffff"
     bordercolor="#666666"
     borderopacity="1.0"
     inkscape:pageopacity="0.0"
     inkscape:pageshadow="2"
     inkscape:zoom="4"
     inkscape:cx="66.73577"
     inkscape:cy="3.098034"
     inkscape:document-units="px"
     inkscape:current-layer="layer1"
     showgrid="false"
     inkscape:window-width="1920"
     inkscape:window-height="1017"
     inkscape:window-x="-8"
     inkscape:window-y="-8"
     inkscape:window-maximized="1"
     inkscape:snap-page="false"
     units="px"
     fit-margin-top="0"
     fit-margin-left="0"
     fit-margin-right="0"
     fit-margin-bottom="0"
     inkscape:pagecheckerboard="true"
     inkscape:snap-to-guides="false"
     inkscape:snap-grids="false"
     scale-x="0.26458"
     inkscape:snap-global="false" />
  <metadata
     id="metadata5">
    <rdf:RDF>
      <cc:Work
         rdf:about="">
        <dc:format>image/svg+xml</dc:format>
        <dc:type
           rdf:resource="http://purl.org/dc/dcmitype/StillImage" />
        <dc:title></dc:title>
      </cc:Work>
    </rdf:RDF>
  </metadata>
  <g
     inkscape:label="Layer 1"
     inkscape:groupmode="layer"
     id="layer1"
     transform="translate(332.44242,68.145259)"
     style="display:inline">
    <g
       id="g158524"
       transform="matrix(2.9549646,0,0,-2.9549646,-318.59284,-49.775465)">
      <path
         d="M 0,0 -0.12,0.66 -0.42,1.229 -0.9,1.71 -1.47,2.01 -2.13,2.13 -2.79,2.01 -3.36,1.71 -3.84,1.229 -4.14,0.66 -4.26,0 l 0.12,-0.66 0.3,-0.57 0.48,-0.48 0.57,-0.3 0.66,-0.12 0.66,0.12 0.57,0.3 0.48,0.48 0.3,0.57 z"
         style="fill:#ffffff;fill-opacity:1;fill-rule:evenodd;stroke:none"
         id="path158526"
         inkscape:connector-curvature="0" />
    </g>
    <g
       id="g158528"
       transform="matrix(2.9549646,0,0,-2.9549646,-318.59284,-49.775465)">
      <path
         d="M 0,0 -0.12,0.66 -0.42,1.229 -0.9,1.71 -1.47,2.01 -2.13,2.13 -2.79,2.01 -3.36,1.71 -3.84,1.229 -4.14,0.66 -4.26,0 l 0.12,-0.66 0.3,-0.57 0.48,-0.48 0.57,-0.3 0.66,-0.12 0.66,0.12 0.57,0.3 0.48,0.48 0.3,0.57 L 0,0 v 0.06"
         style="fill:none;stroke:#009640;stroke-width:0.83999997;stroke-linecap:butt;stroke-linejoin:miter;stroke-miterlimit:3;stroke-dasharray:none;stroke-opacity:1"
         id="path158530"
         inkscape:connector-curvature="0" />
    </g>
    <g
       id="g158532"
       transform="matrix(2.9549646,0,0,-2.9549646,-318.68096,-49.775465)">
      <path
         d="m 0,0 0.12,-0.66 0.3,-0.57 0.48,-0.48 0.57,-0.3 0.66,-0.12 0.66,0.12 0.57,0.3 0.48,0.48 0.3,0.57 L 4.26,0 4.14,0.66 3.84,1.229 3.36,1.71 2.79,2.01 2.13,2.13 1.47,2.01 0.9,1.71 0.42,1.229 0.12,0.66 Z"
         style="fill:#ffffff;fill-opacity:1;fill-rule:evenodd;stroke:none"
         id="path158534"
         inkscape:connector-curvature="0" />
    </g>
    <g
       id="g158536"
       transform="matrix(2.9549646,0,0,-2.9549646,-318.68096,-49.775465)">
      <path
         d="m 0,0 0.12,-0.66 0.3,-0.57 0.48,-0.48 0.57,-0.3 0.66,-0.12 0.66,0.12 0.57,0.3 0.48,0.48 0.3,0.57 L 4.26,0 4.14,0.66 3.84,1.229 3.36,1.71 2.79,2.01 2.13,2.13 1.47,2.01 0.9,1.71 0.42,1.229 0.12,0.66 0,0 v -0.06"
         style="fill:none;stroke:#009640;stroke-width:0.83999997;stroke-linecap:butt;stroke-linejoin:miter;stroke-miterlimit:3;stroke-dasharray:none;stroke-opacity:1"
         id="path158538"
         inkscape:connector-curvature="0" />
    </g>
    <g
       id="g158540"
       transform="matrix(2.9549646,0,0,-2.9549646,-312.12175,-60.589752)">
      <path
         d="M 0,0 -0.12,0.66 -0.42,1.229 -0.9,1.71 -1.47,2.01 -2.13,2.13 -2.79,2.01 -3.36,1.71 -3.84,1.229 -4.14,0.66 -4.26,0 l 0.12,-0.66 0.3,-0.57 0.48,-0.48 0.57,-0.3 0.66,-0.12 0.66,0.12 0.57,0.3 0.48,0.48 0.3,0.57 z"
         style="fill:#ffffff;fill-opacity:1;fill-rule:evenodd;stroke:none"
         id="path158542"
         inkscape:connector-curvature="0" />
    </g>
    <g
       id="g158544"
       transform="matrix(2.9549646,0,0,-2.9549646,-312.12175,-60.589752)">
      <path
         d="M 0,0 -0.12,0.66 -0.42,1.229 -0.9,1.71 -1.47,2.01 -2.13,2.13 -2.79,2.01 -3.36,1.71 -3.84,1.229 -4.14,0.66 -4.26,0 l 0.12,-0.66 0.3,-0.57 0.48,-0.48 0.57,-0.3 0.66,-0.12 0.66,0.12 0.57,0.3 0.48,0.48 0.3,0.57 L 0,0 v 0.06"
         style="fill:none;stroke:#009640;stroke-width:0.83999997;stroke-linecap:butt;stroke-linejoin:miter;stroke-miterlimit:3;stroke-dasharray:none;stroke-opacity:1"
         id="path158546"
         inkscape:connector-curvature="0" />
    </g>
  </g>
</svg>
