<?xml version="1.0" encoding="UTF-8" standalone="no"?>
<!-- Created with Inkscape (http://www.inkscape.org/) -->

<svg
   xmlns:dc="http://purl.org/dc/elements/1.1/"
   xmlns:cc="http://creativecommons.org/ns#"
   xmlns:rdf="http://www.w3.org/1999/02/22-rdf-syntax-ns#"
   xmlns:svg="http://www.w3.org/2000/svg"
   xmlns="http://www.w3.org/2000/svg"
   xmlns:sodipodi="http://sodipodi.sourceforge.net/DTD/sodipodi-0.dtd"
   xmlns:inkscape="http://www.inkscape.org/namespaces/inkscape"
   width="151.62346"
   height="100"
   viewBox="0 0 40.116538 26.458"
   version="1.1"
   id="svg8"
   inkscape:version="0.92.4 (5da689c313, 2019-01-14)"
   sodipodi:docname="postkontor.svg"
   inkscape:export-filename="C:\Projects\regio-webapi\kaart.regio.ee\www\vormsi\www\img\vaatetorn.png"
   inkscape:export-xdpi="96"
   inkscape:export-ydpi="96">
  <defs
     id="defs2">
    <clipPath
       clipPathUnits="userSpaceOnUse"
       id="clipPath149212">
      <path
         d="M 0,0 H 1190.551 V 841.89 H 0 Z"
         id="path149210"
         inkscape:connector-curvature="0" />
    </clipPath>
    <clipPath
       clipPathUnits="userSpaceOnUse"
       id="clipPath149228">
      <path
         d="M 0,0 H 1190.551 V 841.89 H 0 Z"
         id="path149226"
         inkscape:connector-curvature="0" />
    </clipPath>
  </defs>
  <sodipodi:namedview
     id="base"
     pagecolor="#ffffff"
     bordercolor="#666666"
     borderopacity="1.0"
     inkscape:pageopacity="0.0"
     inkscape:pageshadow="2"
     inkscape:zoom="4"
     inkscape:cx="138.50758"
     inkscape:cy="68.868811"
     inkscape:document-units="px"
     inkscape:current-layer="layer3"
     showgrid="false"
     inkscape:window-width="1920"
     inkscape:window-height="1017"
     inkscape:window-x="-8"
     inkscape:window-y="-8"
     inkscape:window-maximized="1"
     inkscape:snap-page="false"
     units="px"
     fit-margin-top="0"
     fit-margin-left="0"
     fit-margin-right="0"
     fit-margin-bottom="0"
     inkscape:pagecheckerboard="true"
     inkscape:snap-to-guides="false"
     inkscape:snap-grids="false"
     scale-x="0.26458"
     inkscape:snap-global="true" />
  <metadata
     id="metadata5">
    <rdf:RDF>
      <cc:Work
         rdf:about="">
        <dc:format>image/svg+xml</dc:format>
        <dc:type
           rdf:resource="http://purl.org/dc/dcmitype/StillImage" />
        <dc:title></dc:title>
      </cc:Work>
    </rdf:RDF>
  </metadata>
  <g
     inkscape:label="Layer 1"
     inkscape:groupmode="layer"
     id="layer1"
     transform="translate(40.889417,13.24829)"
     style="display:inline" />
  <g
     inkscape:groupmode="layer"
     id="layer3"
     inkscape:label="vaatetorn"
     style="display:inline"
     transform="translate(29.930269,7.5947286)">
    <g
       id="g144872"
       transform="matrix(3.2054762,0,0,-3.2054762,-6.0719095,11.647745)">
      <path
         d="M 0,0 0.24,-0.03 0.479,0.03 0.75,0.21 0.931,0.42 1.11,0.72 1.201,1.021 1.321,1.651 1.291,2.161 1.229,2.581 1.11,2.941 0.81,3.452 0.39,3.782 0.15,3.813 V 4.592 L 0.601,4.532 0.99,4.382 1.352,4.143 1.772,3.692 2.071,3.182 2.251,2.701 2.342,2.191 2.371,1.531 2.311,1.142 2.131,0.54 1.951,0.12 1.682,-0.149 1.831,0 l 0.39,0.51 0.301,0.57 0.269,0.571 0.18,0.661 0.18,0.719 0.121,0.902 v 0.63 h 1.77 L 5.072,4.502 4.952,3.722 4.802,3.151 4.532,2.281 4.172,1.441 3.632,0.54 3.121,-0.12 2.461,-0.81 1.772,-1.32 1.11,-1.711 0.45,-1.98 l -0.81,-0.21 -0.721,-0.061 -0.75,0.061 -0.6,0.12 -0.479,0.149 -0.422,0.18 -0.51,0.27 -0.569,0.39 -0.421,0.331 -0.45,0.45 -0.421,0.51 -0.42,0.601 -0.27,0.51 -0.269,0.54 -0.211,0.571 -0.21,0.599 -0.12,0.511 -0.119,0.601 -0.061,0.42 -0.06,0.54 v 0.9 h 4.232 L -3.24,5.973 -3.422,5.552 -3.571,5.042 -3.692,4.353 V 3.872 l 0.031,-0.42 0.119,-0.661 0.15,-0.51 0.361,-0.719 0.39,-0.512 0.39,-0.33 0.42,-0.27 0.03,0.03 -0.15,0.36 -0.06,0.302 -0.03,0.239 -0.029,0.33 0.029,0.51 0.12,0.57 0.181,0.481 0.269,0.42 0.36,0.39 0.391,0.271 0.449,0.179 0.421,0.06 V 3.813 H 0.03 L -0.09,3.782 -0.3,3.692 -0.479,3.512 -0.69,3.241 -0.84,2.881 -0.96,2.341 V 1.892 L -0.93,1.381 -0.84,1.05 -0.659,0.63 -0.479,0.36 -0.21,0.09 Z"
         style="fill:#00618a;fill-opacity:1;fill-rule:evenodd;stroke:none"
         id="path144874"
         inkscape:connector-curvature="0" />
    </g>
  </g>
</svg>
