<?xml version="1.0" encoding="UTF-8" standalone="no"?>
<!-- Created with Inkscape (http://www.inkscape.org/) -->

<svg
   xmlns:dc="http://purl.org/dc/elements/1.1/"
   xmlns:cc="http://creativecommons.org/ns#"
   xmlns:rdf="http://www.w3.org/1999/02/22-rdf-syntax-ns#"
   xmlns:svg="http://www.w3.org/2000/svg"
   xmlns="http://www.w3.org/2000/svg"
   xmlns:sodipodi="http://sodipodi.sourceforge.net/DTD/sodipodi-0.dtd"
   xmlns:inkscape="http://www.inkscape.org/namespaces/inkscape"
   width="104.358"
   height="142.36015"
   viewBox="0 0 27.611045 37.665651"
   version="1.1"
   id="svg8"
   inkscape:version="0.92.4 (5da689c313, 2019-01-14)"
   sodipodi:docname="puisniit.svg"
   inkscape:export-filename="C:\Projects\regio-webapi\kaart.regio.ee\www\vormsi\www\img\vaatetorn.png"
   inkscape:export-xdpi="96"
   inkscape:export-ydpi="96">
  <defs
     id="defs2">
    <clipPath
       clipPathUnits="userSpaceOnUse"
       id="clipPath149212">
      <path
         d="M 0,0 H 1190.551 V 841.89 H 0 Z"
         id="path149210"
         inkscape:connector-curvature="0" />
    </clipPath>
    <clipPath
       clipPathUnits="userSpaceOnUse"
       id="clipPath149228">
      <path
         d="M 0,0 H 1190.551 V 841.89 H 0 Z"
         id="path149226"
         inkscape:connector-curvature="0" />
    </clipPath>
    <clipPath
       clipPathUnits="userSpaceOnUse"
       id="clipPath160572">
      <path
         d="m 283.74,144.469 h 7.454 v 13.135 h -7.454 z"
         id="path160570"
         inkscape:connector-curvature="0" />
    </clipPath>
    <clipPath
       clipPathUnits="userSpaceOnUse"
       id="clipPath160580">
      <path
         d="m 283.741,157.604 h 7.453 V 144.47 h -7.453 z"
         id="path160578"
         inkscape:connector-curvature="0" />
    </clipPath>
    <clipPath
       clipPathUnits="userSpaceOnUse"
       id="clipPath160584">
      <path
         d="m 283.741,157.604 h 7.453 V 144.47 h -7.453 z"
         id="path160582"
         inkscape:connector-curvature="0" />
    </clipPath>
    <clipPath
       clipPathUnits="userSpaceOnUse"
       id="clipPath160610">
      <path
         d="M 266.732,9.638 H 451.929 V 163.559 H 266.732 Z"
         id="path160608"
         inkscape:connector-curvature="0" />
    </clipPath>
    <clipPath
       clipPathUnits="userSpaceOnUse"
       id="clipPath160618">
      <path
         d="m 282.958,134.448 h 8.418 v -11.89 h -8.418 z"
         id="path160616"
         inkscape:connector-curvature="0" />
    </clipPath>
    <clipPath
       clipPathUnits="userSpaceOnUse"
       id="clipPath160622">
      <path
         d="m 282.958,122.558 h 8.418 v 11.89 h -8.418 z"
         id="path160620"
         inkscape:connector-curvature="0" />
    </clipPath>
    <clipPath
       clipPathUnits="userSpaceOnUse"
       id="clipPath160610-0">
      <path
         d="M 266.732,9.638 H 451.929 V 163.559 H 266.732 Z"
         id="path160608-4"
         inkscape:connector-curvature="0" />
    </clipPath>
    <clipPath
       clipPathUnits="userSpaceOnUse"
       id="clipPath160618-5">
      <path
         d="m 282.958,134.448 h 8.418 v -11.89 h -8.418 z"
         id="path160616-3"
         inkscape:connector-curvature="0" />
    </clipPath>
    <clipPath
       clipPathUnits="userSpaceOnUse"
       id="clipPath160622-9">
      <path
         d="m 282.958,122.558 h 8.418 v 11.89 h -8.418 z"
         id="path160620-3"
         inkscape:connector-curvature="0" />
    </clipPath>
  </defs>
  <sodipodi:namedview
     id="base"
     pagecolor="#ffffff"
     bordercolor="#666666"
     borderopacity="1.0"
     inkscape:pageopacity="0.0"
     inkscape:pageshadow="2"
     inkscape:zoom="2"
     inkscape:cx="-110.15983"
     inkscape:cy="68.520419"
     inkscape:document-units="px"
     inkscape:current-layer="layer1"
     showgrid="false"
     inkscape:window-width="1920"
     inkscape:window-height="1017"
     inkscape:window-x="-8"
     inkscape:window-y="-8"
     inkscape:window-maximized="1"
     inkscape:snap-page="false"
     units="px"
     fit-margin-top="0"
     fit-margin-left="0"
     fit-margin-right="0"
     fit-margin-bottom="0"
     inkscape:pagecheckerboard="true"
     inkscape:snap-to-guides="false"
     inkscape:snap-grids="false"
     scale-x="0.26458"
     inkscape:snap-global="false" />
  <metadata
     id="metadata5">
    <rdf:RDF>
      <cc:Work
         rdf:about="">
        <dc:format>image/svg+xml</dc:format>
        <dc:type
           rdf:resource="http://purl.org/dc/dcmitype/StillImage" />
        <dc:title></dc:title>
      </cc:Work>
    </rdf:RDF>
  </metadata>
  <g
     inkscape:label="Layer 1"
     inkscape:groupmode="layer"
     id="layer1"
     transform="translate(331.73361,83.422599)"
     style="display:inline">
    <g
       id="g160498"
       transform="matrix(3.331868,0,0,-3.331868,-322.7761,-46.806471)">
      <path
         d="M 0,0 V 2.64"
         style="fill:none;stroke:#009640;stroke-width:0.56999999;stroke-linecap:butt;stroke-linejoin:miter;stroke-miterlimit:3;stroke-dasharray:none;stroke-opacity:1"
         id="path160500"
         inkscape:connector-curvature="0" />
    </g>
    <g
       id="g160502"
       transform="matrix(3.331868,0,0,-3.331868,-327.07423,-46.806471)">
      <path
         d="M 0,0 5.52,-0.03"
         style="fill:none;stroke:#009640;stroke-width:0.56999999;stroke-linecap:butt;stroke-linejoin:miter;stroke-miterlimit:3;stroke-dasharray:none;stroke-opacity:1"
         id="path160504"
         inkscape:connector-curvature="0" />
    </g>
    <g
       id="g160506"
       transform="matrix(3.331868,0,0,-3.331868,-312.98073,-46.806471)">
      <path
         d="M 0,0 V 2.67"
         style="fill:none;stroke:#009640;stroke-width:0.56999999;stroke-linecap:butt;stroke-linejoin:miter;stroke-miterlimit:3;stroke-dasharray:none;stroke-opacity:1"
         id="path160508"
         inkscape:connector-curvature="0" />
    </g>
    <g
       id="g160510"
       transform="matrix(3.331868,0,0,-3.331868,-322.7761,-55.602851)">
      <path
         d="M 0,0 -0.81,-0.42 -1.83,0 -2.4,1.08 -2.31,2.94 -1.74,4.14 -1.86,5.91 -1.08,7.32 0,8.01 1.05,7.32 1.44,5.97 1.86,7.32 2.94,8.01 3.99,7.32 4.8,5.94 4.71,4.14 5.22,2.94 5.31,1.08 4.74,0.03 3.9,-0.42 2.94,0.03 2.13,-0.42 1.5,-0.15 0.96,-0.42 Z"
         style="fill:#009640;fill-opacity:1;fill-rule:evenodd;stroke:none"
         id="path160512"
         inkscape:connector-curvature="0" />
    </g>
    <g
       id="g160514"
       transform="matrix(3.331868,0,0,-3.331868,-322.7761,-55.602851)">
      <path
         d="M 0,0 -0.81,-0.42 -1.83,0 -2.4,1.08 -2.31,2.94 -1.74,4.14 -1.86,5.91 -1.08,7.32 0,8.01 1.05,7.32 1.44,5.97 1.86,7.32 2.94,8.01 3.99,7.32 4.8,5.94 4.71,4.14 5.22,2.94 5.31,1.08 4.74,0.03 3.9,-0.42 2.94,0.03 2.13,-0.42 1.5,-0.15 0.96,-0.42 0,0 -0.06,-0.03"
         style="fill:none;stroke:#009640;stroke-width:0.56999999;stroke-linecap:butt;stroke-linejoin:miter;stroke-miterlimit:3;stroke-dasharray:none;stroke-opacity:1"
         id="path160516"
         inkscape:connector-curvature="0" />
    </g>
  </g>
</svg>
