<?xml version="1.0" encoding="UTF-8" standalone="no"?>
<!-- Created with Inkscape (http://www.inkscape.org/) -->

<svg
   xmlns:dc="http://purl.org/dc/elements/1.1/"
   xmlns:cc="http://creativecommons.org/ns#"
   xmlns:rdf="http://www.w3.org/1999/02/22-rdf-syntax-ns#"
   xmlns:svg="http://www.w3.org/2000/svg"
   xmlns="http://www.w3.org/2000/svg"
   xmlns:sodipodi="http://sodipodi.sourceforge.net/DTD/sodipodi-0.dtd"
   xmlns:inkscape="http://www.inkscape.org/namespaces/inkscape"
   width="64.470497"
   height="100"
   viewBox="0 0 17.057605 26.458"
   version="1.1"
   id="svg8"
   inkscape:version="0.92.4 (5da689c313, 2019-01-14)"
   sodipodi:docname="tuulik.svg"
   inkscape:export-filename="C:\Projects\regio-webapi\kaart.regio.ee\www\vormsi\www\img\vaatetorn.png"
   inkscape:export-xdpi="96"
   inkscape:export-ydpi="96">
  <defs
     id="defs2">
    <clipPath
       clipPathUnits="userSpaceOnUse"
       id="clipPath149212">
      <path
         d="M 0,0 H 1190.551 V 841.89 H 0 Z"
         id="path149210"
         inkscape:connector-curvature="0" />
    </clipPath>
    <clipPath
       clipPathUnits="userSpaceOnUse"
       id="clipPath149228">
      <path
         d="M 0,0 H 1190.551 V 841.89 H 0 Z"
         id="path149226"
         inkscape:connector-curvature="0" />
    </clipPath>
  </defs>
  <sodipodi:namedview
     id="base"
     pagecolor="#ffffff"
     bordercolor="#666666"
     borderopacity="1.0"
     inkscape:pageopacity="0.0"
     inkscape:pageshadow="2"
     inkscape:zoom="5.6568543"
     inkscape:cx="53.303231"
     inkscape:cy="42.126096"
     inkscape:document-units="px"
     inkscape:current-layer="layer3"
     showgrid="false"
     inkscape:window-width="1920"
     inkscape:window-height="1017"
     inkscape:window-x="-8"
     inkscape:window-y="-8"
     inkscape:window-maximized="1"
     inkscape:snap-page="false"
     units="px"
     fit-margin-top="0"
     fit-margin-left="0"
     fit-margin-right="0"
     fit-margin-bottom="0"
     inkscape:pagecheckerboard="true"
     inkscape:snap-to-guides="false"
     inkscape:snap-grids="false"
     scale-x="0.26458"
     inkscape:snap-global="false" />
  <metadata
     id="metadata5">
    <rdf:RDF>
      <cc:Work
         rdf:about="">
        <dc:format>image/svg+xml</dc:format>
        <dc:type
           rdf:resource="http://purl.org/dc/dcmitype/StillImage" />
        <dc:title></dc:title>
      </cc:Work>
    </rdf:RDF>
  </metadata>
  <g
     inkscape:label="Layer 1"
     inkscape:groupmode="layer"
     id="layer1"
     transform="translate(26.411675,22.29535)"
     style="display:inline" />
  <g
     inkscape:groupmode="layer"
     id="layer3"
     inkscape:label="vaatetorn"
     style="display:inline"
     transform="translate(15.452527,16.641789)">
    <g
       id="g141778"
       transform="matrix(1.9038481,0,0,-1.9038481,-14.809331,-3.8753551)">
      <path
         d="M 0,0 7.503,6.303 M 8.284,-0.15 0.601,6.303 M 0,-0.33 7.925,6.303 M 8.284,-0.48 0.21,6.303 M 8.104,-0.75 0,6.063 M 0,-0.75 8.284,6.183 M 4.052,2.551 2.881,1.02 3.362,0.93 0.989,-6.633 7.143,-6.663 4.712,0.899 5.222,0.96 4.052,2.551 4.022,2.49"
         style="fill:none;stroke:#ffffff;stroke-width:1.04999995;stroke-linecap:butt;stroke-linejoin:miter;stroke-miterlimit:3;stroke-dasharray:none;stroke-opacity:1"
         id="path141780"
         inkscape:connector-curvature="0" />
    </g>
    <g
       id="g145798"
       transform="matrix(1.9038481,0,0,-1.9038481,-7.0945486,-8.7320668)">
      <path
         d="m 0,0 -1.171,-1.531 0.481,-0.09 -2.372,-7.563 6.153,-0.03 -2.431,7.563 0.511,0.06 z"
         style="fill:#646363;fill-opacity:1;fill-rule:evenodd;stroke:none"
         id="path145800"
         inkscape:connector-curvature="0" />
    </g>
    <g
       id="g145802"
       transform="matrix(1.9038481,0,0,-1.9038481,-14.809331,-3.8753551)">
      <path
         d="M 0,0 7.503,6.303 M 8.284,-0.15 0.601,6.303 M 0,-0.33 7.925,6.303 M 8.284,-0.48 0.21,6.303 M 8.104,-0.75 0,6.063 M 0,-0.75 8.284,6.183 M 4.052,2.551 2.881,1.02 3.362,0.93 0.989,-6.633 7.143,-6.663 4.712,0.899 5.222,0.96 4.052,2.551 4.022,2.49"
         style="fill:none;stroke:#1d1d1b;stroke-width:0.38999999;stroke-linecap:butt;stroke-linejoin:miter;stroke-miterlimit:3;stroke-dasharray:none;stroke-opacity:1"
         id="path145804"
         inkscape:connector-curvature="0" />
    </g>
  </g>
</svg>
