<?xml version="1.0" encoding="UTF-8" standalone="no"?>
<!-- Created with Inkscape (http://www.inkscape.org/) -->

<svg
   xmlns:dc="http://purl.org/dc/elements/1.1/"
   xmlns:cc="http://creativecommons.org/ns#"
   xmlns:rdf="http://www.w3.org/1999/02/22-rdf-syntax-ns#"
   xmlns:svg="http://www.w3.org/2000/svg"
   xmlns="http://www.w3.org/2000/svg"
   xmlns:sodipodi="http://sodipodi.sourceforge.net/DTD/sodipodi-0.dtd"
   xmlns:inkscape="http://www.inkscape.org/namespaces/inkscape"
   width="104.358"
   height="183.90419"
   viewBox="0 0 27.611045 48.657372"
   version="1.1"
   id="svg8"
   inkscape:version="0.92.4 (5da689c313, 2019-01-14)"
   sodipodi:docname="vallavalitsus.svg"
   inkscape:export-filename="C:\Projects\regio-webapi\kaart.regio.ee\www\vormsi\www\img\vaatetorn.png"
   inkscape:export-xdpi="96"
   inkscape:export-ydpi="96">
  <defs
     id="defs2">
    <clipPath
       clipPathUnits="userSpaceOnUse"
       id="clipPath149212">
      <path
         d="M 0,0 H 1190.551 V 841.89 H 0 Z"
         id="path149210"
         inkscape:connector-curvature="0" />
    </clipPath>
    <clipPath
       clipPathUnits="userSpaceOnUse"
       id="clipPath149228">
      <path
         d="M 0,0 H 1190.551 V 841.89 H 0 Z"
         id="path149226"
         inkscape:connector-curvature="0" />
    </clipPath>
    <clipPath
       clipPathUnits="userSpaceOnUse"
       id="clipPath160572">
      <path
         d="m 283.74,144.469 h 7.454 v 13.135 h -7.454 z"
         id="path160570"
         inkscape:connector-curvature="0" />
    </clipPath>
    <clipPath
       clipPathUnits="userSpaceOnUse"
       id="clipPath160580">
      <path
         d="m 283.741,157.604 h 7.453 V 144.47 h -7.453 z"
         id="path160578"
         inkscape:connector-curvature="0" />
    </clipPath>
    <clipPath
       clipPathUnits="userSpaceOnUse"
       id="clipPath160584">
      <path
         d="m 283.741,157.604 h 7.453 V 144.47 h -7.453 z"
         id="path160582"
         inkscape:connector-curvature="0" />
    </clipPath>
  </defs>
  <sodipodi:namedview
     id="base"
     pagecolor="#ffffff"
     bordercolor="#666666"
     borderopacity="1.0"
     inkscape:pageopacity="0.0"
     inkscape:pageshadow="2"
     inkscape:zoom="2.8284271"
     inkscape:cx="-41.279315"
     inkscape:cy="109.87594"
     inkscape:document-units="px"
     inkscape:current-layer="layer1"
     showgrid="false"
     inkscape:window-width="1920"
     inkscape:window-height="1017"
     inkscape:window-x="-8"
     inkscape:window-y="-8"
     inkscape:window-maximized="1"
     inkscape:snap-page="false"
     units="px"
     fit-margin-top="0"
     fit-margin-left="0"
     fit-margin-right="0"
     fit-margin-bottom="0"
     inkscape:pagecheckerboard="true"
     inkscape:snap-to-guides="false"
     inkscape:snap-grids="false"
     scale-x="0.26458"
     inkscape:snap-global="false" />
  <metadata
     id="metadata5">
    <rdf:RDF>
      <cc:Work
         rdf:about="">
        <dc:format>image/svg+xml</dc:format>
        <dc:type
           rdf:resource="http://purl.org/dc/dcmitype/StillImage" />
        <dc:title></dc:title>
      </cc:Work>
    </rdf:RDF>
  </metadata>
  <g
     inkscape:label="Layer 1"
     inkscape:groupmode="layer"
     id="layer1"
     transform="translate(344.62671,114.97139)"
     style="display:inline">
    <g
       id="g160558"
       transform="matrix(3.7046884,0,0,-3.7046884,-340.18486,-70.758518)">
      <path
         d="M 0,0 V 4.263 H 2.158 V 7.902 L 1.486,8.219 1.217,8.555 1.104,8.853 0.996,9.38 l 0.105,0.362 0.251,0.506 0.339,0.28 0.302,0.111 0.52,0.104 L 2.881,10.639 3.388,10.386 3.662,10.048 3.79,9.674 3.88,9.234 3.775,8.857 3.526,8.357 3.184,8.079 3.063,8.047 2.851,7.953 V 4.263 H 5.054 V 0 Z"
         style="fill:#ffffff;fill-opacity:1;fill-rule:nonzero;stroke:none"
         id="path160560"
         inkscape:connector-curvature="0" />
    </g>
    <g
       id="g160562"
       transform="matrix(3.7046884,0,0,-3.7046884,-331.15284,-111.85388)">
      <path
         d="m 0,0 -0.589,-0.126 -0.399,-0.177 -0.422,-0.389 -0.276,-0.587 -0.105,-0.51 0.13,-0.596 0.175,-0.392 0.382,-0.421 0.466,-0.219 v -3.056 h -2.158 v -4.979 h 5.77 v 4.979 H 0.771 v 3.098 l 0.217,0.098 0.422,0.387 0.278,0.586 0.103,0.515 -0.103,0.51 -0.005,-0.002 -0.195,0.478 -0.386,0.421 -0.589,0.278 z m 2.259,-7.189 v -3.548 H -2.08 v 3.548 h 1.442 0.715 0.694 1.488 M 0.005,-0.732 0.286,-0.788 0.67,-0.968 0.874,-1.19 1.008,-1.52 1.062,-1.789 1.005,-2.077 0.825,-2.456 0.591,-2.671 0.48,-2.722 0.056,-2.91 v -0.042 l -0.391,0.182 -0.335,0.158 -0.209,0.23 -0.099,0.221 -0.081,0.377 0.056,0.278 0.18,0.383 0.232,0.214 0.224,0.099 z"
         style="fill:#1d1d1b;fill-opacity:1;fill-rule:nonzero;stroke:none"
         id="path160564"
         inkscape:connector-curvature="0" />
    </g>
    <g
       transform="matrix(3.7046884,0,0,-3.7046884,-1395.7987,468.90232)"
       id="g160566">
      <g
         id="g160568"
         clip-path="url(#clipPath160572)">
        <g
           id="g160574">
          <g
             id="g160576" />
          <g
             id="g160596">
            <g
               clip-path="url(#clipPath160580)"
               id="g160594">
              <g
                 id="g160592">
                <g
                   clip-path="url(#clipPath160584)"
                   id="g160590">
                  <g
                     transform="translate(287.378,157.6041)"
                     id="g160588">
                    <path
                       d="m 0,0 c -0.059,0 -0.118,-0.007 -0.177,-0.019 l -0.589,-0.126 c -0.055,-0.013 -0.109,-0.03 -0.161,-0.052 L -1.328,-0.374 C -1.412,-0.411 -1.491,-0.461 -1.56,-0.527 L -1.981,-0.916 C -2.06,-0.99 -2.126,-1.077 -2.171,-1.173 l -0.278,-0.588 c -0.029,-0.062 -0.049,-0.126 -0.062,-0.191 l -0.105,-0.51 c -0.023,-0.115 -0.021,-0.233 0.002,-0.347 l 0.13,-0.596 c 0.013,-0.057 0.03,-0.111 0.055,-0.163 l 0.175,-0.394 c 0.036,-0.081 0.084,-0.157 0.145,-0.222 l 0.382,-0.421 c 0.071,-0.077 0.153,-0.141 0.248,-0.188 v -1.68 h -1.317 c -0.466,0 -0.841,-0.376 -0.841,-0.842 v -4.978 c 0,-0.465 0.375,-0.842 0.841,-0.842 h 5.77 c 0.465,0 0.842,0.377 0.842,0.842 v 4.978 c 0,0.466 -0.377,0.842 -0.842,0.842 H 1.612 v 1.786 l 0.367,0.336 c 0.081,0.073 0.145,0.162 0.192,0.258 l 0.278,0.585 c 0.03,0.064 0.052,0.13 0.066,0.197 l 0.102,0.517 c 0.022,0.108 0.022,0.222 0,0.33 l -0.102,0.51 c -0.019,0.087 -0.049,0.168 -0.093,0.246 l -0.153,0.38 C 2.23,-1.234 2.176,-1.15 2.109,-1.076 L 1.724,-0.655 C 1.649,-0.574 1.56,-0.508 1.463,-0.461 L 0.874,-0.183 C 0.811,-0.155 0.746,-0.133 0.68,-0.12 L 0.167,-0.017 C 0.111,-0.005 0.056,0 0,0 m 0,-0.842 0.513,-0.104 0.589,-0.278 0.386,-0.42 0.195,-0.478 0.005,10e-4 0.103,-0.51 L 1.688,-3.146 1.41,-3.731 0.988,-4.119 0.771,-4.216 v -3.099 h 2.203 v -4.978 h -5.77 v 4.978 h 2.158 v 3.057 l -0.466,0.219 -0.382,0.42 -0.175,0.392 -0.13,0.596 0.105,0.51 0.276,0.588 0.422,0.388 0.399,0.177 L 0,-0.842"
                       style="fill:#8c9b95;fill-opacity:1;fill-rule:nonzero;stroke:none"
                       id="path160586"
                       inkscape:connector-curvature="0" />
                  </g>
                </g>
              </g>
            </g>
          </g>
        </g>
      </g>
    </g>
  </g>
</svg>
