<?xml version="1.0" encoding="UTF-8" standalone="no"?>
<!-- Created with Inkscape (http://www.inkscape.org/) -->

<svg
   xmlns:dc="http://purl.org/dc/elements/1.1/"
   xmlns:cc="http://creativecommons.org/ns#"
   xmlns:rdf="http://www.w3.org/1999/02/22-rdf-syntax-ns#"
   xmlns:svg="http://www.w3.org/2000/svg"
   xmlns="http://www.w3.org/2000/svg"
   xmlns:sodipodi="http://sodipodi.sourceforge.net/DTD/sodipodi-0.dtd"
   xmlns:inkscape="http://www.inkscape.org/namespaces/inkscape"
   width="104.358"
   height="63.32111"
   viewBox="0 0 27.611043 16.7535"
   version="1.1"
   id="svg8"
   inkscape:version="0.92.4 (5da689c313, 2019-01-14)"
   sodipodi:docname="wc.svg"
   inkscape:export-filename="C:\Projects\regio-webapi\kaart.regio.ee\www\vormsi\www\img\vaatetorn.png"
   inkscape:export-xdpi="96"
   inkscape:export-ydpi="96">
  <defs
     id="defs2">
    <clipPath
       clipPathUnits="userSpaceOnUse"
       id="clipPath149212">
      <path
         d="M 0,0 H 1190.551 V 841.89 H 0 Z"
         id="path149210"
         inkscape:connector-curvature="0" />
    </clipPath>
    <clipPath
       clipPathUnits="userSpaceOnUse"
       id="clipPath149228">
      <path
         d="M 0,0 H 1190.551 V 841.89 H 0 Z"
         id="path149226"
         inkscape:connector-curvature="0" />
    </clipPath>
  </defs>
  <sodipodi:namedview
     id="base"
     pagecolor="#ffffff"
     bordercolor="#666666"
     borderopacity="1.0"
     inkscape:pageopacity="0.0"
     inkscape:pageshadow="2"
     inkscape:zoom="11.313709"
     inkscape:cx="69.049424"
     inkscape:cy="34.305625"
     inkscape:document-units="px"
     inkscape:current-layer="layer3"
     showgrid="false"
     inkscape:window-width="1920"
     inkscape:window-height="1017"
     inkscape:window-x="-8"
     inkscape:window-y="-8"
     inkscape:window-maximized="1"
     inkscape:snap-page="false"
     units="px"
     fit-margin-top="0"
     fit-margin-left="0"
     fit-margin-right="0"
     fit-margin-bottom="0"
     inkscape:pagecheckerboard="true"
     inkscape:snap-to-guides="false"
     inkscape:snap-grids="false"
     scale-x="0.26458"
     inkscape:snap-global="false" />
  <metadata
     id="metadata5">
    <rdf:RDF>
      <cc:Work
         rdf:about="">
        <dc:format>image/svg+xml</dc:format>
        <dc:type
           rdf:resource="http://purl.org/dc/dcmitype/StillImage" />
        <dc:title></dc:title>
      </cc:Work>
    </rdf:RDF>
  </metadata>
  <g
     inkscape:label="Layer 1"
     inkscape:groupmode="layer"
     id="layer1"
     transform="translate(118.47495,50.999684)"
     style="display:inline" />
  <g
     inkscape:groupmode="layer"
     id="layer3"
     inkscape:label="vaatetorn"
     style="display:inline"
     transform="translate(107.51581,45.346122)">
    <g
       id="g155150"
       transform="matrix(2.8495251,0,0,-2.8495251,-93.154206,-45.346122)">
      <path
         d="M 0,0 -0.72,-3.299 -0.96,-4.44 -1.17,-3.299 -1.77,0 H -2.49 L -3.181,-3.299 -3.42,-4.589 -3.69,-3.299 -4.261,0 H -5.04 l 1.26,-5.7 h 0.689 l 0.99,4.26 0.09,-0.93 0.601,-3.33 h 0.839 L 0.689,0 Z"
         style="fill:#1d1d1b;fill-opacity:1;fill-rule:nonzero;stroke:none"
         id="path155152"
         inkscape:connector-curvature="0" />
    </g>
    <g
       id="g155154"
       transform="matrix(2.8495251,0,0,-2.8495251,-85.888774,-45.176858)">
      <path
         d="M 0,0 -0.36,-0.181 -0.69,-0.451 -0.96,-0.81 -1.2,-1.261 -1.38,-1.77 -1.47,-2.31 -1.53,-2.88 -1.47,-3.451 -1.38,-3.991 -1.2,-4.5 -0.96,-4.951 -0.69,-5.31 -0.36,-5.58 0,-5.761 0.36,-5.82 l 0.3,0.059 0.27,0.092 0.27,0.178 0.24,0.24 0.21,0.332 0.21,0.328 L 2.01,-4.17 2.1,-3.75 1.41,-3.6 1.32,-3.901 1.23,-4.17 1.14,-4.411 0.99,-4.621 0.84,-4.801 0.69,-4.919 0.54,-5.01 H 0.36 l -0.33,0.091 -0.3,0.238 -0.27,0.391 -0.18,0.509 -0.09,0.6 v 0.601 l 0.09,0.6 0.18,0.509 0.27,0.391 0.3,0.239 0.33,0.09 h 0.15 l 0.15,-0.059 0.15,-0.091 0.12,-0.149 0.12,-0.18 0.12,-0.18 0.09,-0.241 0.09,-0.24 0.66,0.24 H 2.04 2.01 L 1.89,-1.291 1.74,-0.96 1.56,-0.661 1.35,-0.419 1.11,-0.211 0.87,-0.06 0.63,0.03 0.36,0.059 Z"
         style="fill:#1d1d1b;fill-opacity:1;fill-rule:nonzero;stroke:none"
         id="path155156"
         inkscape:connector-curvature="0" />
    </g>
  </g>
</svg>
